# This file uses centimeters as units for non-parametric coordinates.

mtllib background.mtl
g default
v 31.362389 1.362724 -27.492411
v 39.401077 1.362724 -27.492411
v 31.362389 11.278130 -27.492411
v 39.401077 11.278130 -27.492411
v 31.868366 -0.114243 -12.752127
v 31.868366 8.552956 -12.752127
v 38.895111 8.552956 -12.752127
v 38.895111 -0.114243 -12.752127
v 32.109802 -0.117538 -0.651440
v 38.653664 7.954048 -0.651440
v 38.653664 -0.117538 -0.651440
v 32.109802 7.954048 -0.651440
v 32.109802 -0.117538 11.234750
v 38.653664 7.954048 11.234750
v 38.653664 -0.117538 11.234750
v 32.109802 7.954048 11.234750
v 41.046154 -2.501793 -40.191681
v 41.046154 3.476009 12.628998
v 41.046154 -2.501793 12.628998
v 41.046154 3.476009 -40.191681
v 24.939686 -0.015635 11.129222
v 27.624805 -0.015635 11.129222
v 24.939686 1.736631 11.129222
v 27.624805 1.736631 11.129222
v 24.939686 -0.015635 5.716139
v 27.624805 -0.015635 5.716139
v 24.939686 1.736631 5.716139
v 27.624805 1.736631 5.716139
v 27.624805 -0.015635 -0.397167
v 24.939686 1.736631 -0.397167
v 27.624805 1.736631 -0.397167
v 24.939686 -0.015635 -0.397167
v 24.939686 -0.015635 -5.890043
v 27.624805 -0.015635 -5.890043
v 24.939686 1.736631 -5.890043
v 27.624805 1.736631 -5.890043
v 24.939686 -0.015635 -12.752127
v 27.624805 -0.015635 -12.752127
v 24.939686 1.736631 -12.752127
v 27.624805 1.736631 -12.752127
vt 0.335405 0.995117
vt 0.335405 0.004883
vt 0.447471 0.004883
vt 0.447471 0.995117
vt 0.004883 0.004883
vt 0.331076 0.004883
vt 0.331076 0.407229
vt 0.004883 0.407229
vt 0.451914 0.004883
vt 0.737044 0.004883
vt 0.737044 0.356579
vt 0.451914 0.356579
vt 0.004883 0.411401
vt 0.270419 0.411401
vt 0.270419 0.738929
vt 0.004883 0.738929
vt 0.451914 0.360752
vt 0.717450 0.360752
vt 0.717450 0.688280
vt 0.451914 0.688280
vt 0.741947 0.226968
vt 0.741947 0.118012
vt 0.813050 0.118012
vt 0.813050 0.226968
vt 0.965090 0.113839
vt 0.893987 0.113839
vt 0.893987 0.004883
vt 0.965090 0.004883
vt 0.817967 0.113839
vt 0.817967 0.004883
vt 0.889070 0.004883
vt 0.889070 0.113839
vt 0.813050 0.113839
vt 0.741947 0.113839
vt 0.741947 0.004883
vt 0.813050 0.004883
vt 0.889070 0.226968
vt 0.817967 0.226968
vt 0.817967 0.118012
vt 0.889070 0.118012
vn 0.000000 0.000000 1.000000
vn 0.000000 0.000000 1.000000
vn 0.000000 0.000000 1.000000
vn 0.000000 0.000000 1.000000
vn 0.000000 0.000000 1.000000
vn 0.000000 0.000000 1.000000
vn 0.000000 0.000000 1.000000
vn 0.000000 0.000000 1.000000
vn 0.000000 0.000000 1.000000
vn 0.000000 0.000000 1.000000
vn 0.000000 0.000000 1.000000
vn 0.000000 0.000000 1.000000
vn 0.000000 0.000000 1.000000
vn 0.000000 0.000000 1.000000
vn 0.000000 0.000000 1.000000
vn 0.000000 0.000000 1.000000
vn -1.000000 0.000000 0.000000
vn -1.000000 0.000000 0.000000
vn -1.000000 0.000000 0.000000
vn -1.000000 0.000000 0.000000
vn 0.000000 0.000000 1.000000
vn 0.000000 0.000000 1.000000
vn 0.000000 0.000000 1.000000
vn 0.000000 0.000000 1.000000
vn 0.000000 0.000000 1.000000
vn 0.000000 0.000000 1.000000
vn 0.000000 0.000000 1.000000
vn 0.000000 0.000000 1.000000
vn 0.000000 0.000000 1.000000
vn 0.000000 0.000000 1.000000
vn 0.000000 0.000000 1.000000
vn 0.000000 0.000000 1.000000
vn 0.000000 0.000000 1.000000
vn 0.000000 0.000000 1.000000
vn 0.000000 0.000000 1.000000
vn 0.000000 0.000000 1.000000
vn 0.000000 0.000000 1.000000
vn 0.000000 0.000000 1.000000
vn 0.000000 0.000000 1.000000
vn 0.000000 0.000000 1.000000
s off
g zhedang background
usemtl initialShadingGroup
f 1/5/1 2/6/2 4/7/3 3/8/4
f 5/9/5 8/10/6 7/11/7 6/12/8
f 9/13/9 11/14/10 10/15/11 12/16/12
f 13/17/13 15/18/14 14/19/15 16/20/16
f 17/1/17 19/2/18 18/3/19 20/4/20
f 21/21/21 22/22/22 24/23/23 23/24/24
f 27/25/25 25/26/26 26/27/27 28/28/28
f 32/29/29 29/30/30 31/31/31 30/32/32
f 35/33/33 33/34/34 34/35/35 36/36/36
f 39/37/37 37/38/38 38/39/39 40/40/40
g default
v -237.075500 -2.782084 40.628784
v -169.339645 -2.782084 40.628784
v -101.603783 -2.782084 40.628784
v -33.867912 -2.782084 40.628784
v 33.867939 -2.782084 40.628784
v 101.603790 -2.782084 40.628784
v 169.339676 -2.782084 40.628784
v 237.075500 -2.782084 40.628784
v -237.075500 -2.782084 -8.389648
v -169.339645 -2.782084 -8.389648
v -101.603783 -2.782084 -8.389648
v -33.867912 -2.782084 -8.389648
v 33.867939 -2.782084 -8.389648
v 101.603790 -2.782084 -8.389648
v 169.339676 -2.782084 -8.389648
v 237.075500 -2.782084 -8.389648
v -237.075500 -2.782084 -57.408081
v -169.339645 -2.782084 -57.408081
v -101.603783 -2.782084 -57.408081
v -33.867912 -2.782084 -57.408081
v 33.867939 -2.782084 -57.408081
v 101.603790 -2.782084 -57.408081
v 169.339676 -2.782084 -57.408081
v 237.075500 -2.782084 -57.408081
v -237.075500 -2.782084 -106.426521
v -169.339645 -2.782084 -106.426521
v -101.603783 -2.782084 -106.426521
v -33.867912 -2.782084 -106.426521
v 33.867939 -2.782084 -106.426521
v 101.603790 -2.782084 -106.426521
v 169.339676 -2.782084 -106.426521
v 237.075500 -2.782084 -106.426521
v -237.075500 -2.782084 -155.444946
v -169.339645 -2.782084 -155.444946
v -101.603783 -2.782084 -155.444946
v -33.867912 -2.782084 -155.444946
v 33.867939 -2.782084 -155.444946
v 101.603790 -2.782084 -155.444946
v 169.339676 -2.782084 -155.444946
v 237.075500 -2.782084 -155.444946
v -237.075500 -2.782084 -204.463379
v -169.339645 -2.782084 -204.463379
v -101.603783 -2.782084 -204.463379
v -33.867912 -2.782084 -204.463379
v 33.867939 -2.782084 -204.463379
v 101.603790 -2.782084 -204.463379
v 169.339676 -2.782084 -204.463379
v 237.075500 -2.782084 -204.463379
vt 0.000000 0.000000
vt 0.142857 0.000000
vt 0.285714 0.000000
vt 0.428571 0.000000
vt 0.571429 0.000000
vt 0.714286 0.000000
vt 0.857143 0.000000
vt 1.000000 0.000000
vt 0.000000 0.200000
vt 0.142857 0.200000
vt 0.285714 0.200000
vt 0.428571 0.200000
vt 0.571429 0.200000
vt 0.714286 0.200000
vt 0.857143 0.200000
vt 1.000000 0.200000
vt 0.000000 0.400000
vt 0.142857 0.400000
vt 0.285714 0.400000
vt 0.428571 0.400000
vt 0.571429 0.400000
vt 0.714286 0.400000
vt 0.857143 0.400000
vt 1.000000 0.400000
vt 0.000000 0.600000
vt 0.142857 0.600000
vt 0.285714 0.600000
vt 0.428571 0.600000
vt 0.571429 0.600000
vt 0.714286 0.600000
vt 0.857143 0.600000
vt 1.000000 0.600000
vt 0.000000 0.800000
vt 0.142857 0.800000
vt 0.285714 0.800000
vt 0.428571 0.800000
vt 0.571429 0.800000
vt 0.714286 0.800000
vt 0.857143 0.800000
vt 1.000000 0.800000
vt 0.000000 1.000000
vt 0.142857 1.000000
vt 0.285714 1.000000
vt 0.428571 1.000000
vt 0.571429 1.000000
vt 0.714286 1.000000
vt 0.857143 1.000000
vt 1.000000 1.000000
vn 0.000000 1.000000 0.000000
vn 0.000000 1.000000 0.000000
vn 0.000000 1.000000 0.000000
vn 0.000000 1.000000 0.000000
vn 0.000000 1.000000 0.000000
vn 0.000000 1.000000 0.000000
vn 0.000000 1.000000 0.000000
vn 0.000000 1.000000 0.000000
vn 0.000000 1.000000 0.000000
vn 0.000000 1.000000 0.000000
vn 0.000000 1.000000 0.000000
vn 0.000000 1.000000 0.000000
vn 0.000000 1.000000 0.000000
vn 0.000000 1.000000 0.000000
vn 0.000000 1.000000 0.000000
vn 0.000000 1.000000 0.000000
vn 0.000000 1.000000 0.000000
vn 0.000000 1.000000 0.000000
vn 0.000000 1.000000 0.000000
vn 0.000000 1.000000 0.000000
vn 0.000000 1.000000 0.000000
vn 0.000000 1.000000 0.000000
vn 0.000000 1.000000 0.000000
vn 0.000000 1.000000 0.000000
vn 0.000000 1.000000 0.000000
vn 0.000000 1.000000 0.000000
vn 0.000000 1.000000 0.000000
vn 0.000000 1.000000 0.000000
vn 0.000000 1.000000 0.000000
vn 0.000000 1.000000 0.000000
vn 0.000000 1.000000 0.000000
vn 0.000000 1.000000 0.000000
vn 0.000000 1.000000 0.000000
vn 0.000000 1.000000 0.000000
vn 0.000000 1.000000 0.000000
vn 0.000000 1.000000 0.000000
vn 0.000000 1.000000 0.000000
vn 0.000000 1.000000 0.000000
vn 0.000000 1.000000 0.000000
vn 0.000000 1.000000 0.000000
vn 0.000000 1.000000 0.000000
vn 0.000000 1.000000 0.000000
vn 0.000000 1.000000 0.000000
vn 0.000000 1.000000 0.000000
vn 0.000000 1.000000 0.000000
vn 0.000000 1.000000 0.000000
vn 0.000000 1.000000 0.000000
vn 0.000000 1.000000 0.000000
s 1
g background background_02
usemtl initialShadingGroup
f 41/41/41 42/42/42 50/50/43 49/49/44
f 42/42/42 43/43/45 51/51/46 50/50/43
f 43/43/45 44/44/47 52/52/48 51/51/46
f 44/44/47 45/45/49 53/53/50 52/52/48
f 45/45/49 46/46/51 54/54/52 53/53/50
f 46/46/51 47/47/53 55/55/54 54/54/52
f 47/47/53 48/48/55 56/56/56 55/55/54
f 49/49/44 50/50/43 58/58/57 57/57/58
f 50/50/43 51/51/46 59/59/59 58/58/57
f 51/51/46 52/52/48 60/60/60 59/59/59
f 52/52/48 53/53/50 61/61/61 60/60/60
f 53/53/50 54/54/52 62/62/62 61/61/61
f 54/54/52 55/55/54 63/63/63 62/62/62
f 55/55/54 56/56/56 64/64/64 63/63/63
f 57/57/58 58/58/57 66/66/65 65/65/66
f 58/58/57 59/59/59 67/67/67 66/66/65
f 59/59/59 60/60/60 68/68/68 67/67/67
f 60/60/60 61/61/61 69/69/69 68/68/68
f 61/61/61 62/62/62 70/70/70 69/69/69
f 62/62/62 63/63/63 71/71/71 70/70/70
f 63/63/63 64/64/64 72/72/72 71/71/71
f 65/65/66 66/66/65 74/74/73 73/73/74
f 66/66/65 67/67/67 75/75/75 74/74/73
f 67/67/67 68/68/68 76/76/76 75/75/75
f 68/68/68 69/69/69 77/77/77 76/76/76
f 69/69/69 70/70/70 78/78/78 77/77/77
f 70/70/70 71/71/71 79/79/79 78/78/78
f 71/71/71 72/72/72 80/80/80 79/79/79
f 73/73/74 74/74/73 82/82/81 81/81/82
f 74/74/73 75/75/75 83/83/83 82/82/81
f 75/75/75 76/76/76 84/84/84 83/83/83
f 76/76/76 77/77/77 85/85/85 84/84/84
f 77/77/77 78/78/78 86/86/86 85/85/85
f 78/78/78 79/79/79 87/87/87 86/86/86
f 79/79/79 80/80/80 88/88/88 87/87/87
g default
v -62.195499 1.643942 -60.793575
v 30.832951 1.643942 -60.793575
v -62.195499 27.639748 -60.793575
v 30.832951 27.639748 -60.793575
vt 0.000000 0.000000
vt 1.000000 0.000000
vt 0.000000 1.000000
vt 1.000000 1.000000
vn 0.000000 0.000000 1.000000
vn 0.000000 0.000000 1.000000
vn 0.000000 0.000000 1.000000
vn 0.000000 0.000000 1.000000
s off
g background background_01
usemtl initialShadingGroup
f 89/89/89 90/90/90 92/92/91 91/91/92
