# This file uses centimeters as units for non-parametric coordinates.

mtllib bideng_low.mtl
g default
v -10.287360 8.567016 -26.913578
v -10.287360 8.567016 -26.964142
v -10.212169 8.567016 -26.913578
v -10.212169 8.567016 -26.964142
v -10.182681 8.567016 -26.938860
v -10.316848 8.567016 -26.938860
v -10.317089 8.686149 -26.886770
v -10.369893 8.686149 -26.938860
v -10.182440 8.686149 -26.886770
v -10.317089 8.686149 -26.990950
v -10.182440 8.686149 -26.990950
v -10.129636 8.686149 -26.938860
v -10.328979 9.028244 -26.877571
v -10.391108 9.028244 -26.938860
v -10.170550 9.028244 -26.877571
v -10.328979 9.028244 -27.000149
v -10.170550 9.028244 -27.000149
v -10.108421 9.028244 -26.938860
v -10.287360 9.489472 -26.913578
v -10.287360 9.489472 -26.964142
v -10.212169 9.489472 -26.913578
v -10.212169 9.489472 -26.964142
v -10.182681 9.489472 -26.938860
v -10.316848 9.489472 -26.938860
v -10.317089 9.370339 -26.886770
v -10.369893 9.370339 -26.938860
v -10.182440 9.370339 -26.886770
v -10.317089 9.370339 -26.990950
v -10.182440 9.370339 -26.990950
v -10.129636 9.370339 -26.938860
vt 0.223269 0.930473
vt 0.231852 0.940484
vt 0.231852 0.966009
vt 0.223269 0.976020
vt 0.214686 0.966009
vt 0.214686 0.940484
vt 0.205677 0.930473
vt 0.205677 0.976020
vt 0.197095 0.966009
vt 0.197095 0.940484
vt 0.214260 0.966009
vt 0.214260 0.940484
vt 0.487019 0.159392
vt 0.498004 0.203410
vt 0.448253 0.203410
vt 0.459237 0.159392
vt 0.497914 0.159392
vt 0.517514 0.203410
vt 0.502397 0.329809
vt 0.443860 0.329809
vt 0.428742 0.203410
vt 0.448342 0.159392
vt 0.525352 0.329809
vt 0.498004 0.456207
vt 0.448253 0.456207
vt 0.420904 0.329809
vt 0.517514 0.456207
vt 0.487019 0.500225
vt 0.459237 0.500225
vt 0.428742 0.456207
vt 0.497914 0.500225
vt 0.448342 0.500225
vt 0.093519 0.500225
vt 0.082535 0.456208
vt 0.132285 0.456208
vt 0.121301 0.500225
vt 0.082624 0.500225
vt 0.063024 0.456208
vt 0.078142 0.329809
vt 0.136678 0.329809
vt 0.151795 0.456208
vt 0.132196 0.500225
vt 0.055186 0.329809
vt 0.082535 0.203411
vt 0.132285 0.203411
vt 0.159634 0.329809
vt 0.063024 0.203411
vt 0.093519 0.159393
vt 0.121301 0.159393
vt 0.151795 0.203411
vt 0.082624 0.159393
vt 0.132196 0.159393
vn 0.000000 -1.000000 -0.000011
vn 0.000000 -1.000000 0.000000
vn 0.000000 -1.000000 0.000000
vn 0.000000 -1.000000 -0.000011
vn 0.000000 -1.000000 -0.000023
vn 0.000000 -1.000000 -0.000023
vn -0.652426 -0.304710 0.693897
vn -0.652426 -0.304710 0.693897
vn -0.652426 -0.304710 0.693897
vn -0.652426 -0.304710 0.693897
vn 0.000000 -0.219536 0.975604
vn 0.000000 -0.219536 0.975604
vn 0.000000 -0.219536 0.975604
vn 0.000000 -0.219536 0.975604
vn 0.000000 -0.219536 -0.975604
vn 0.000000 -0.219536 -0.975604
vn 0.000000 -0.219536 -0.975604
vn 0.000000 -0.219536 -0.975604
vn 0.652425 -0.304714 0.693896
vn 0.652425 -0.304714 0.693896
vn 0.652425 -0.304714 0.693896
vn 0.652425 -0.304714 0.693896
vn 0.652425 -0.304714 -0.693896
vn 0.652425 -0.304714 -0.693896
vn 0.652425 -0.304714 -0.693896
vn 0.652425 -0.304714 -0.693896
vn -0.652426 -0.304710 -0.693897
vn -0.652426 -0.304710 -0.693897
vn -0.652426 -0.304710 -0.693897
vn -0.652426 -0.304710 -0.693897
vn -0.701608 -0.043510 0.711233
vn -0.701608 -0.043510 0.711233
vn -0.701608 -0.043510 0.711233
vn -0.701608 -0.043510 0.711233
vn 0.000000 -0.026881 0.999639
vn 0.000000 -0.026881 0.999639
vn 0.000000 -0.026881 0.999639
vn 0.000000 -0.026881 0.999639
vn 0.000000 -0.026881 -0.999639
vn 0.000000 -0.026881 -0.999639
vn 0.000000 -0.026881 -0.999639
vn 0.000000 -0.026881 -0.999639
vn 0.701609 -0.043510 0.711233
vn 0.701609 -0.043510 0.711233
vn 0.701609 -0.043510 0.711233
vn 0.701609 -0.043510 0.711233
vn 0.701608 -0.043510 -0.711233
vn 0.701608 -0.043510 -0.711233
vn 0.701608 -0.043510 -0.711233
vn 0.701608 -0.043510 -0.711233
vn -0.701609 -0.043510 -0.711233
vn -0.701609 -0.043510 -0.711233
vn -0.701609 -0.043510 -0.711233
vn -0.701609 -0.043510 -0.711233
vn 0.000000 1.000000 0.000000
vn 0.000000 1.000000 0.000000
vn 0.000000 1.000000 -0.000023
vn 0.000000 1.000000 -0.000023
vn 0.000000 1.000000 0.000023
vn 0.000000 1.000000 0.000023
vn -0.652424 0.304709 0.693899
vn -0.652424 0.304709 0.693899
vn -0.652424 0.304709 0.693899
vn -0.652424 0.304709 0.693899
vn 0.000000 0.219538 0.975604
vn 0.000000 0.219538 0.975604
vn 0.000000 0.219538 0.975604
vn 0.000000 0.219538 0.975604
vn 0.000000 0.219538 -0.975604
vn 0.000000 0.219538 -0.975604
vn 0.000000 0.219538 -0.975604
vn 0.000000 0.219538 -0.975604
vn 0.652423 0.304713 0.693898
vn 0.652423 0.304713 0.693898
vn 0.652423 0.304713 0.693898
vn 0.652423 0.304713 0.693898
vn 0.652423 0.304713 -0.693898
vn 0.652423 0.304713 -0.693898
vn 0.652423 0.304713 -0.693898
vn 0.652423 0.304713 -0.693898
vn -0.652425 0.304705 -0.693900
vn -0.652425 0.304705 -0.693900
vn -0.652425 0.304705 -0.693900
vn -0.652425 0.304705 -0.693900
vn -0.701608 0.043510 0.711234
vn -0.701608 0.043510 0.711234
vn -0.701608 0.043510 0.711234
vn -0.701608 0.043510 0.711234
vn 0.000000 0.026881 0.999639
vn 0.000000 0.026881 0.999639
vn 0.000000 0.026881 0.999639
vn 0.000000 0.026881 0.999639
vn 0.000000 0.026881 -0.999639
vn 0.000000 0.026881 -0.999639
vn 0.000000 0.026881 -0.999639
vn 0.000000 0.026881 -0.999639
vn 0.701608 0.043508 0.711234
vn 0.701608 0.043508 0.711234
vn 0.701608 0.043508 0.711234
vn 0.701608 0.043508 0.711234
vn 0.701608 0.043509 -0.711234
vn 0.701608 0.043509 -0.711234
vn 0.701608 0.043509 -0.711234
vn 0.701608 0.043509 -0.711234
vn -0.701608 0.043510 -0.711234
vn -0.701608 0.043510 -0.711234
vn -0.701608 0.043510 -0.711234
vn -0.701608 0.043510 -0.711234
s 1
g bideng_baoshi bideng
usemtl initialShadingGroup
f 5/1/1 3/2/2 1/3/3 6/4/4
f 2/5/5 4/6/6 5/1/1 6/4/4
s off
f 1/16/7 7/15/8 8/21/9 6/22/10
f 3/13/11 9/14/12 7/15/13 1/16/14
f 2/33/15 10/34/16 11/35/17 4/36/18
f 5/17/19 12/18/20 9/14/21 3/13/22
f 4/36/23 11/35/24 12/41/25 5/42/26
f 6/37/27 8/38/28 10/34/29 2/33/30
f 7/15/31 13/20/32 14/26/33 8/21/34
f 9/14/35 15/19/36 13/20/37 7/15/38
f 10/34/39 16/39/40 17/40/41 11/35/42
f 12/18/43 18/23/44 15/19/45 9/14/46
f 11/35/47 17/40/48 18/46/49 12/41/50
f 8/38/51 14/43/52 16/39/53 10/34/54
s 2
f 23/7/55 24/8/56 19/9/57 21/10/58
f 20/11/59 24/8/56 23/7/55 22/12/60
s off
f 19/29/61 24/32/62 26/30/63 25/25/64
f 21/28/65 19/29/66 25/25/67 27/24/68
f 20/48/69 22/49/70 29/45/71 28/44/72
f 23/31/73 21/28/74 27/24/75 30/27/76
f 22/49/77 23/52/78 30/50/79 29/45/80
f 24/51/81 20/48/82 28/44/83 26/47/84
f 25/25/85 26/30/86 14/26/87 13/20/88
f 27/24/89 25/25/90 13/20/91 15/19/92
f 28/44/93 29/45/94 17/40/95 16/39/96
f 30/27/97 27/24/98 15/19/99 18/23/100
f 29/45/101 30/50/102 18/46/103 17/40/104
f 26/47/105 28/44/106 16/39/107 14/43/108
g default
v -10.521833 8.314001 -27.071945
v -10.521833 8.314001 -26.810047
v -10.521833 9.715543 -26.810944
v -10.521833 9.715543 -27.071268
v -9.977695 8.314001 -26.810047
v -9.977695 9.715543 -26.810944
v -9.977695 8.314001 -27.071945
v -9.977695 9.715543 -27.071268
v -10.504581 8.314001 -27.058113
v -10.504581 8.314001 -26.823879
v -10.504581 9.715543 -26.824682
v -10.504581 9.715543 -27.057507
v -9.994947 8.314001 -26.823879
v -9.994947 9.715543 -26.824682
v -9.994947 9.715543 -27.057507
v -9.994947 8.314001 -27.058113
vt 0.684601 0.024432
vt 0.684395 0.500225
vt 0.605357 0.500225
vt 0.605083 0.024432
vt 0.604704 0.500225
vt 0.525665 0.500225
vt 0.525459 0.024431
vt 0.604977 0.024431
vt 0.070725 0.500225
vt 0.159634 0.500225
vt 0.159329 0.976020
vt 0.070954 0.976020
vt 0.685806 0.500225
vt 0.685502 0.024431
vt 0.774411 0.024431
vt 0.774181 0.500225
vt 0.331820 0.500225
vt 0.336515 0.494369
vt 0.416033 0.494369
vt 0.420729 0.500225
vt 0.331820 0.315501
vt 0.336515 0.321358
vt 0.416033 0.321358
vt 0.420729 0.315501
vt 0.152736 0.208704
vt 0.157399 0.202847
vt 0.236439 0.202847
vt 0.241110 0.208704
vt 0.152736 0.023980
vt 0.157399 0.029837
vt 0.236439 0.029837
vt 0.241110 0.023980
vt 0.405116 0.500225
vt 0.578127 0.500225
vt 0.578127 0.976020
vt 0.405116 0.976020
vt 0.231979 0.500225
vt 0.404989 0.500225
vt 0.404989 0.976020
vt 0.231979 0.976020
vt 0.763750 0.976020
vt 0.763750 0.500225
vt 0.948474 0.500225
vt 0.948474 0.976020
vt 0.578577 0.976020
vt 0.578577 0.500225
vt 0.763300 0.500225
vt 0.763300 0.976020
vn 1.000000 0.000000 0.000000
vn 1.000000 0.000000 0.000000
vn 1.000000 0.000000 0.000000
vn 1.000000 0.000000 0.000000
vn 0.000000 -0.000573 -1.000000
vn 0.000000 -0.000573 -1.000000
vn 0.000000 -0.000573 -1.000000
vn 0.000000 -0.000573 -1.000000
vn 0.000000 -0.000433 1.000000
vn 0.000000 -0.000433 1.000000
vn 0.000000 -0.000433 1.000000
vn 0.000000 -0.000433 1.000000
vn -1.000000 0.000000 0.000000
vn -1.000000 0.000000 0.000000
vn -1.000000 0.000000 0.000000
vn -1.000000 0.000000 0.000000
vn -1.000000 0.000001 0.000000
vn -1.000000 0.000001 0.000000
vn -1.000000 0.000001 0.000000
vn -1.000000 0.000001 0.000000
vn 0.000000 0.000640 1.000000
vn 0.000000 0.000640 1.000000
vn 0.000000 0.000640 1.000000
vn 0.000000 0.000640 1.000000
vn 0.000000 0.000483 -1.000000
vn 0.000000 0.000483 -1.000000
vn 0.000000 0.000483 -1.000000
vn 0.000000 0.000483 -1.000000
vn 1.000000 0.000000 0.000000
vn 1.000000 0.000000 0.000000
vn 1.000000 0.000000 0.000000
vn 1.000000 0.000000 0.000000
vn 0.000000 -1.000000 0.000000
vn 0.000000 -1.000000 0.000000
vn 0.000000 -1.000000 0.000000
vn 0.000000 -1.000000 0.000000
vn 0.000000 1.000000 0.000000
vn 0.000000 1.000000 0.000000
vn 0.000000 1.000000 0.000000
vn 0.000000 1.000000 0.000000
vn 0.000000 -1.000000 -0.000065
vn 0.000000 -1.000000 -0.000065
vn 0.000000 -1.000000 -0.000065
vn 0.000000 -1.000000 -0.000065
vn 0.000000 1.000000 -0.000066
vn 0.000000 1.000000 -0.000066
vn 0.000000 1.000000 -0.000066
vn 0.000000 1.000000 -0.000066
vn 0.000000 1.000000 0.000066
vn 0.000000 1.000000 0.000066
vn 0.000000 1.000000 0.000066
vn 0.000000 1.000000 0.000066
vn 0.000000 -1.000000 0.000065
vn 0.000000 -1.000000 0.000065
vn 0.000000 -1.000000 0.000065
vn 0.000000 -1.000000 0.000065
vn 0.000000 -1.000000 0.000000
vn 0.000000 -1.000000 0.000000
vn 0.000000 -1.000000 0.000000
vn 0.000000 -1.000000 0.000000
vn 0.000000 1.000000 0.000000
vn 0.000000 1.000000 0.000000
vn 0.000000 1.000000 0.000000
vn 0.000000 1.000000 0.000000
s off
g bideng bideng_glass
usemtl initialShadingGroup
f 39/53/109 42/54/110 41/55/111 40/56/112
f 41/85/113 44/86/114 43/87/115 40/88/116
f 39/89/117 46/90/118 45/91/119 42/92/120
f 44/57/121 45/58/122 46/59/123 43/60/124
f 31/61/125 32/62/126 33/63/127 34/64/128
f 33/93/129 32/94/130 35/95/131 36/96/132
f 31/97/133 34/98/134 38/99/135 37/100/136
f 36/65/137 35/66/138 37/67/139 38/68/140
f 31/69/141 39/70/142 40/71/143 32/72/144
f 33/77/145 41/78/146 42/79/147 34/80/148
f 32/72/149 40/71/150 43/75/151 35/76/152
f 36/81/153 44/82/154 41/78/155 33/77/156
f 34/80/157 42/79/158 45/83/159 38/84/160
f 37/73/161 46/74/162 39/70/163 31/69/164
f 35/76/165 43/75/166 46/74/167 37/73/168
f 38/84/169 45/83/170 44/82/171 36/81/172
g default
v -10.520810 8.104580 -27.070400
v -9.975650 8.104580 -27.070400
v -9.975651 8.104582 -26.811684
v -10.520810 8.104581 -26.811684
v -9.975395 8.314001 -27.070927
v -10.521257 8.314001 -27.070927
v -10.521257 8.314001 -26.811163
v -9.975395 8.314001 -26.811163
v -9.976470 10.026803 -27.070248
v -10.520463 10.026804 -27.070248
v -9.976470 9.958252 -26.811882
v -10.520463 9.958252 -26.811882
v -9.975856 9.715543 -27.070841
v -9.975856 9.715543 -26.811275
v -10.521062 9.715543 -26.811275
v -10.521062 9.715543 -27.070841
v -10.521061 9.959391 -26.813614
v -9.975066 9.715543 -26.813612
v -10.521833 9.715543 -26.813612
v -10.518747 9.715543 -27.071606
v -10.521062 10.023950 -27.070845
v -10.518746 10.028016 -27.070845
v -10.518746 9.958770 -26.811277
v -10.518747 9.715543 -26.810497
v -9.978226 9.715543 -26.810497
v -9.978226 9.958770 -26.811277
v -9.978226 10.028016 -27.070845
v -9.975856 10.023949 -27.070845
v -9.978226 9.715543 -27.071606
v -9.975066 9.715543 -27.068552
v -9.975856 10.027406 -27.068556
v -10.521062 10.027407 -27.068556
v -10.521833 9.715543 -27.068552
v -10.519529 8.104064 -26.811167
v -10.521257 8.104064 -26.813166
v -10.519528 8.314001 -27.071606
v -10.521833 8.314001 -26.813162
v -10.519529 8.314001 -26.810495
v -9.975066 8.314001 -26.813162
v -10.521257 8.106058 -27.070929
v -10.519529 8.104064 -27.070929
v -10.521257 8.106058 -26.811167
v -9.975394 8.106058 -26.811167
v -9.975394 8.104064 -26.813166
v -10.521833 8.314001 -27.068892
v -10.521257 8.104064 -27.068893
v -9.975394 8.106058 -27.070929
v -9.975394 8.104064 -27.068893
v -9.975066 8.314001 -27.068892
v -9.976381 8.314001 -27.071606
v -9.976380 8.104064 -27.070929
v -9.976380 8.104064 -26.811167
v -9.976381 8.314001 -26.810495
v -9.975856 9.959391 -26.813614
v -9.975856 9.956150 -26.811277
v -10.521061 9.956150 -26.811277
v -10.519528 8.103399 -26.813166
v -10.519528 8.106058 -27.071606
v -10.521833 8.106058 -26.813166
v -10.519529 8.106058 -26.810497
v -9.975066 8.106058 -26.813166
v -10.521833 8.106058 -27.068892
v -10.519528 8.103399 -27.068892
v -9.975066 8.106058 -27.068890
v -9.976381 8.106058 -27.071606
v -9.976381 8.103399 -27.068892
v -9.976381 8.103399 -26.813166
v -9.976381 8.106058 -26.810499
v -9.975067 9.956760 -26.813612
v -10.521833 9.956759 -26.813612
v -10.518747 10.024150 -27.071606
v -10.518747 9.960268 -26.813612
v -10.518747 9.955946 -26.810497
v -9.978226 9.955946 -26.810497
v -9.978226 9.960268 -26.813612
v -9.978226 10.024150 -27.071606
v -9.975066 10.023352 -27.068552
v -9.978226 10.028759 -27.068552
v -10.518747 10.028758 -27.068552
v -10.521833 10.023352 -27.068552
vt 0.160242 0.314795
vt 0.160242 0.314089
vt 0.230839 0.314110
vt 0.230836 0.314814
vt 0.160300 0.227260
vt 0.230892 0.227307
vt 0.231545 0.314112
vt 0.231492 0.314843
vt 0.160300 0.226542
vt 0.230893 0.226588
vt 0.319072 0.314801
vt 0.427712 0.137418
vt 0.230910 0.587707
vt 0.160312 0.587758
vt 0.160252 0.500928
vt 0.230850 0.500901
vt 0.242674 0.138184
vt 0.242444 0.208681
vt 0.160252 0.500239
vt 0.230846 0.500215
vt 0.232269 0.500219
vt 0.319083 0.500215
vt 0.231430 0.588237
vt 0.243080 0.138194
vt 0.242850 0.208688
vt 0.230843 0.499813
vt 0.160251 0.499835
vt 0.231493 0.500230
vt 0.232270 0.499815
vt 0.319082 0.499811
vt 0.319809 0.499812
vt 0.231556 0.499815
vt 0.948320 0.499403
vt 0.843812 0.499211
vt 0.866584 0.412737
vt 0.948471 0.412810
vt 0.948318 0.500225
vt 0.843607 0.500034
vt 0.775443 0.411998
vt 0.865014 0.411923
vt 0.948472 0.411972
vt 0.866795 0.411905
vt 0.842580 0.499844
vt 0.865931 0.411840
vt 0.774510 0.411081
vt 0.775328 0.411080
vt 0.948473 0.226718
vt 0.866785 0.226784
vt 0.866574 0.225954
vt 0.948472 0.225882
vt 0.865003 0.226767
vt 0.865921 0.226845
vt 0.843811 0.139471
vt 0.948323 0.139288
vt 0.842410 0.139478
vt 0.843606 0.138650
vt 0.421655 0.208691
vt 0.421481 0.314421
vt 0.775314 0.227606
vt 0.774496 0.227606
vt 0.232259 0.315437
vt 0.319071 0.315430
vt 0.231544 0.315438
vt 0.319798 0.315429
vt 0.864924 0.227604
vt 0.864935 0.411067
vt 0.865865 0.227606
vt 0.865875 0.411066
vt 0.427205 0.137999
vt 0.427504 0.208691
vt 0.160242 0.315425
vt 0.230832 0.315440
vt 0.866858 0.227608
vt 0.866868 0.411063
vt 0.948474 0.227549
vt 0.948473 0.411123
vt 0.420824 0.313461
vt 0.237336 0.313466
vt 0.237323 0.208704
vt 0.420827 0.208691
vt 0.421651 0.313394
vt 0.774703 0.226785
vt 0.948321 0.138468
vt 0.236492 0.313399
vt 0.236666 0.314425
vt 0.236477 0.208705
vt 0.237336 0.314803
vt 0.420824 0.314799
vt 0.243072 0.137480
vt 0.427206 0.137285
vt 0.231447 0.226742
vt 0.427835 0.137986
vt 0.428136 0.208682
vt 0.230910 0.588408
vt 0.160313 0.588458
vt 0.242724 0.137613
vt 0.231596 0.587708
vt 0.231537 0.500899
vt 0.231596 0.227306
vt 0.232257 0.314808
vt 0.319654 0.314919
vt 0.319673 0.500164
vt 0.775429 0.226705
vt 0.865642 0.225968
vt 0.842410 0.499203
vt 0.865651 0.412722
vt 0.842582 0.138840
vt 0.774717 0.411913
vn -0.001218 -0.999996 0.002581
vn -0.755608 -0.655021 0.001991
vn -0.755616 -0.655012 -0.001997
vn -0.001219 -0.999996 -0.002581
vn 0.001221 -0.999996 -0.002581
vn 0.001219 -0.999996 0.002581
vn 0.000916 -0.708212 0.705999
vn -0.000987 -0.708161 0.706051
vn -0.636285 -0.546218 0.544782
vn 0.001247 0.000000 -0.999999
vn 0.001245 -0.003225 -0.999994
vn -0.001244 -0.003224 -0.999994
vn -0.001246 0.000000 -0.999999
vn -0.756701 -0.000011 0.653761
vn -0.999997 -0.000004 0.002235
vn -0.999994 -0.002741 0.002232
vn -0.756643 -0.002458 0.653823
vn -0.999998 -0.000004 -0.002235
vn -0.999994 -0.002743 -0.002231
vn 0.001224 -0.003198 0.999994
vn 0.001226 -0.000014 0.999999
vn -0.001225 -0.000014 0.999999
vn -0.001223 -0.003197 0.999994
vn 0.999998 -0.001564 -0.001273
vn 0.999999 0.000000 -0.001275
vn 0.999999 0.000000 0.001275
vn 0.999998 -0.001562 0.001273
vn -0.761983 -0.002458 -0.647592
vn -0.762053 0.000003 -0.647515
vn 0.896878 -0.000006 0.442278
vn 0.896754 -0.001733 0.442526
vn -0.639480 -0.549851 -0.537335
vn -0.000994 -0.714284 -0.699855
vn 0.000923 -0.714284 -0.699855
vn 0.896207 -0.443635 0.001406
vn 0.896191 -0.443666 -0.001411
vn 0.827432 -0.397711 0.396463
vn 0.830011 -0.399198 -0.389516
vn 0.899852 -0.001729 -0.436192
vn 0.899980 0.000004 -0.435931
vn -0.001139 0.584615 0.811310
vn -0.001503 0.003203 0.999994
vn 0.001501 0.003204 0.999994
vn 0.001142 0.584614 0.811311
vn -0.001328 0.002435 -0.999996
vn -0.001487 0.552482 -0.833524
vn 0.001493 0.552461 -0.833537
vn 0.001329 0.002435 -0.999996
vn 0.999994 0.000003 -0.003441
vn 0.999986 0.003891 -0.003659
vn 0.999995 0.002082 0.002522
vn 0.999996 0.000003 0.002697
vn 0.769297 0.618206 0.161258
vn 0.832999 0.534094 0.144416
vn 0.735775 0.002450 0.677222
vn 0.560772 0.482071 0.673159
vn -0.002091 0.964932 0.262493
vn 0.002088 0.964931 0.262494
vn 0.001827 0.967022 0.254686
vn -0.001826 0.967022 0.254687
vn -0.710667 0.000006 0.703528
vn -0.743764 0.002427 0.668438
vn -0.999995 0.002031 0.002464
vn -0.999997 0.000000 0.002636
vn -0.839127 0.525069 0.142016
vn -0.570503 0.478270 0.667671
vn 0.702406 0.000006 0.711776
vn -0.001432 0.000000 0.999999
vn 0.001432 0.000000 0.999999
vn -0.999986 0.003799 -0.003576
vn -0.999994 -0.000000 -0.003363
vn 0.001400 -0.000000 -0.999999
vn -0.001400 -0.000000 -0.999999
vn -0.702817 -0.000004 -0.711371
vn -0.664175 0.002361 -0.747574
vn -0.684674 0.383161 -0.620008
vn -0.776424 0.609801 0.159084
vn 0.655779 0.002384 -0.754950
vn 0.676012 0.387828 -0.626576
vn 0.694489 -0.000005 -0.719504
s 1
g bideng bideng_low
usemtl initialShadingGroup
f 103/161/173 81/200/174 92/111/175 109/162/176
f 103/161/173 109/162/176 112/130/177 113/129/178
f 98/132/179 80/163/180 103/161/173 113/129/178
f 81/200/174 103/161/173 80/163/180 50/108/181
f 96/125/182 111/124/183 104/169/184 82/170/185
f 53/101/186 83/102/187 105/103/188 88/104/189
f 91/105/190 108/106/191 105/103/188 83/102/187
f 114/126/192 99/127/193 84/171/194 106/172/195
f 110/113/196 95/114/197 85/115/198 107/116/199
f 82/170/185 104/169/184 86/192/200 52/193/201
f 53/101/186 88/104/189 106/172/195 84/171/194
f 54/119/202 89/120/203 107/116/199 85/115/198
f 47/112/204 86/192/200 104/169/184 87/190/205
f 97/189/206 87/190/205 104/169/184 111/124/183
f 81/107/174 105/103/188 108/106/191 92/199/175
f 88/104/189 105/103/188 81/107/174 50/108/181
f 50/108/181 80/163/180 106/172/195 88/104/189
f 106/172/195 80/163/180 98/132/179 114/126/192
f 107/116/199 90/198/207 94/197/208 110/113/196
f 90/198/207 107/116/199 89/120/203 49/128/209
f 91/105/190 52/109/201 86/110/200 108/106/191
f 92/199/175 108/106/191 86/110/200 47/191/204
f 47/201/204 87/164/205 109/162/176 92/111/175
f 97/131/206 112/130/177 109/162/176 87/164/205
f 48/123/210 93/194/211 110/113/196 94/197/208
f 110/113/196 93/194/211 51/195/212 95/114/197
f 51/118/212 93/117/211 111/124/183 96/125/182
f 97/189/206 111/124/183 93/117/211 48/196/210
f 94/122/208 112/130/177 97/131/206 48/202/210
f 90/121/207 113/129/178 112/130/177 94/122/208
f 98/132/179 113/129/178 90/121/207 49/128/209
f 114/126/192 98/132/179 49/128/209 89/120/203
f 114/126/192 89/120/203 54/119/202 99/127/193
s 6
f 69/167/213 119/173/214 120/174/215 72/168/216
f 117/177/217 68/188/218 73/187/219 122/178/220
f 76/133/221 123/134/222 115/135/223 64/136/224
f 77/205/225 100/206/226 115/135/223 123/134/222
f 101/142/227 115/135/223 100/206/226 57/144/228
f 118/165/229 69/167/213 72/168/216 121/166/230
f 124/146/231 125/159/232 118/165/229 121/166/230
f 61/147/233 102/148/234 116/149/235 65/150/236
f 63/204/237 116/149/235 102/148/234 58/152/238
f 60/141/239 64/136/224 115/135/223 101/142/227
f 119/173/214 70/175/240 71/176/241 120/174/215
f 126/153/242 79/154/243 65/150/236 116/149/235
f 75/179/244 66/180/245 117/177/217 122/178/220
f 62/157/246 67/181/247 117/177/217 66/180/245
f 68/188/218 117/177/217 67/181/247 56/158/248
f 78/203/249 63/151/237 118/165/229 125/159/232
f 69/167/213 118/165/229 63/151/237 58/152/238
f 102/148/234 119/173/214 69/167/213 58/152/238
f 61/147/233 70/175/240 119/173/214 102/148/234
f 60/141/239 101/142/227 120/174/215 71/176/241
f 72/168/216 120/174/215 101/142/227 57/144/228
f 100/140/226 121/166/230 72/168/216 57/144/228
f 74/184/250 122/178/220 73/187/219 55/185/251
f 59/186/252 75/179/244 122/178/220 74/184/250
f 77/139/225 124/146/231 121/166/230 100/140/226
f 78/155/249 126/153/242 116/149/235 63/204/237
f 76/133/221 59/137/252 74/138/250 123/134/222
f 77/205/225 123/134/222 74/138/250 55/143/251
f 55/208/251 73/145/219 124/146/231 77/139/225
f 68/160/218 125/159/232 124/146/231 73/145/219
f 78/203/249 125/159/232 68/160/218 56/182/248
f 56/207/248 67/156/247 126/153/242 78/155/249
f 126/153/242 67/156/247 62/183/246 79/154/243
