# This file uses centimeters as units for non-parametric coordinates.

mtllib dangban.mtl
g default
v 25.473429 2.007856 -20.633490
v 25.473429 1.996224 -27.049927
v 25.473429 0.812282 -20.633488
v 25.473429 0.812282 -26.084999
v 25.473429 0.812281 -27.049927
v -56.835976 2.007856 -20.633490
v -56.835976 1.996224 -27.049927
v -56.835976 0.812282 -20.633488
v -56.835976 0.812282 -26.084999
v -56.835976 0.812281 -27.049927
vt 1.000000 1.000000
vt 1.000000 1.000000
vt 1.000000 1.000000
vt 1.000000 1.000000
vt 0.374026 0.846415
vt 0.424170 0.131513
vt 0.557381 0.141115
vt 0.513638 0.748450
vt 0.505865 0.855941
vt 1.000000 1.000000
vn -1.000000 0.000000 0.000000
vn -1.000000 0.000000 0.000000
vn -1.000000 0.000000 0.000000
vn -1.000000 0.000000 0.000000
vn 1.000000 0.000002 0.000000
vn 1.000000 0.000002 0.000000
vn 1.000000 0.000002 0.000000
vn 1.000000 0.000002 0.000000
vn 1.000000 0.000000 0.000000
vn -1.000000 0.000000 0.000000
s 1
g dangban
usemtl phongE1SG
f 1/1/1 2/2/2 4/3/3 3/4/4
s 2
f 7/5/5 6/6/6 8/7/7 9/8/8
f 7/5/5 9/8/8 10/9/9
s 1
f 4/3/3 2/2/2 5/10/10
