# This file uses centimeters as units for non-parametric coordinates.

mtllib water.mtl
g default
v -24.157112 -0.227654 9.932403
v -7.205433 -0.227654 9.932402
v -7.205434 -0.227654 -7.019276
v -24.157112 -0.227654 -7.019276
v -15.681272 -0.227654 13.443210
v -3.694626 -0.227654 1.456563
v -15.681273 -0.227654 -10.530084
v -27.667919 -0.227654 1.456563
v -15.681273 -0.227654 1.456563
v -26.755489 -0.227654 6.043655
v -20.268364 -0.227654 12.530781
v -15.681273 -0.227654 7.449887
v -21.674595 -0.227654 1.456563
v -20.796894 -0.227654 6.572185
v -11.094181 -0.227654 12.530780
v -4.607055 -0.227654 6.043654
v -9.687949 -0.227654 1.456563
v -10.565651 -0.227654 6.572185
v -4.607056 -0.227654 -3.130528
v -11.094182 -0.227654 -9.617655
v -15.681273 -0.227654 -4.536760
v -10.565651 -0.227654 -3.659058
v -20.268364 -0.227654 -9.617654
v -26.755489 -0.227654 -3.130528
v -20.796894 -0.227654 -3.659058
v -24.671257 -0.227654 1.456563
v -27.437599 -0.227654 3.795043
v -23.776192 -0.227654 6.307920
v -21.235744 -0.227654 4.014374
v -24.223724 -0.227654 3.882242
v -25.647804 -0.227654 8.115988
v -22.340696 -0.227654 11.423096
v -20.532629 -0.227654 9.551483
v -22.994465 -0.227654 8.769756
v -18.019751 -0.227654 13.212890
v -15.681273 -0.227654 10.446548
v -18.239082 -0.227654 7.011036
v -18.106951 -0.227654 9.999016
v -15.681273 -0.227654 4.453225
v -18.677935 -0.227654 1.456563
v -18.458508 -0.227654 4.233799
v -13.342793 -0.227654 13.212890
v -10.829916 -0.227654 9.551483
v -13.123462 -0.227654 7.011036
v -13.255594 -0.227654 9.999016
v -9.021848 -0.227654 11.423096
v -5.714740 -0.227654 8.115987
v -7.586352 -0.227654 6.307919
v -8.368080 -0.227654 8.769754
v -3.924946 -0.227654 3.795042
v -6.691288 -0.227654 1.456563
v -10.126801 -0.227654 4.014374
v -7.138820 -0.227654 3.882241
v -12.684610 -0.227654 1.456563
v -12.904037 -0.227654 4.233799
v -3.924946 -0.227654 -0.881916
v -7.586353 -0.227654 -3.394793
v -10.126801 -0.227654 -1.101248
v -7.138821 -0.227654 -0.969115
v -5.714740 -0.227654 -5.202861
v -9.021849 -0.227654 -8.509970
v -10.829917 -0.227654 -6.638357
v -8.368081 -0.227654 -5.856629
v -13.342794 -0.227654 -10.299764
v -15.681273 -0.227654 -7.533421
v -13.123462 -0.227654 -4.097909
v -13.255594 -0.227654 -7.085889
v -15.681273 -0.227654 -1.540098
v -12.904037 -0.227654 -1.320673
v -18.019753 -0.227654 -10.299764
v -20.532629 -0.227654 -6.638357
v -18.239084 -0.227654 -4.097909
v -18.106951 -0.227654 -7.085889
v -22.340698 -0.227654 -8.509970
v -25.647804 -0.227654 -5.202861
v -23.776192 -0.227654 -3.394793
v -22.994465 -0.227654 -5.856628
v -27.437599 -0.227654 -0.881916
v -21.235744 -0.227654 -1.101247
v -24.223724 -0.227654 -0.969115
v -18.458509 -0.227654 -1.320673
v 25.728130 1.626701 -20.243536
v -2.792072 1.626701 -20.243536
v 25.728130 1.626701 -27.456350
v -2.792072 1.626701 -27.456350
v -57.090675 1.626701 -20.243536
v -28.570473 1.626701 -20.243536
v -57.090675 1.626701 -27.456350
v -28.570473 1.626701 -27.456350
vt 0.587015 0.733614
vt 0.653437 0.711532
vt 0.691537 0.782813
vt 0.628148 0.803008
vt 0.729637 0.854094
vt 0.671084 0.878347
vt 0.608925 0.890712
vt 0.564759 0.823204
vt 0.520593 0.755696
vt 0.545547 0.890712
vt 0.496261 0.835910
vt 0.483387 0.878348
vt 0.424834 0.854094
vt 0.372137 0.818883
vt 0.446365 0.787290
vt 0.327323 0.774069
vt 0.404879 0.735281
vt 0.292112 0.721372
vt 0.363393 0.683272
vt 0.434674 0.645171
vt 0.477634 0.700434
vt 0.505955 0.607071
vt 0.546485 0.670342
vt 0.577236 0.568971
vt 0.615336 0.640251
vt 0.412592 0.578749
vt 0.343198 0.619883
vt 0.267859 0.662819
vt 0.255494 0.600659
vt 0.323002 0.556494
vt 0.390510 0.512328
vt 0.255494 0.537282
vt 0.310296 0.487995
vt 0.267859 0.475122
vt 0.292112 0.416569
vt 0.327323 0.363872
vt 0.358916 0.438100
vt 0.372138 0.319058
vt 0.410926 0.396614
vt 0.424834 0.283847
vt 0.462935 0.355128
vt 0.501035 0.426409
vt 0.445772 0.469368
vt 0.539135 0.497689
vt 0.475864 0.538220
vt 0.567457 0.404327
vt 0.526324 0.334932
vt 0.483387 0.259593
vt 0.545547 0.247229
vt 0.589713 0.314737
vt 0.633878 0.382245
vt 0.608925 0.247229
vt 0.658211 0.302031
vt 0.671084 0.259593
vt 0.729637 0.283847
vt 0.782334 0.319058
vt 0.708106 0.350651
vt 0.827149 0.363872
vt 0.749592 0.402660
vt 0.862359 0.416569
vt 0.791078 0.454669
vt 0.719797 0.492769
vt 0.676838 0.437507
vt 0.648516 0.530870
vt 0.607987 0.467598
vt 0.741880 0.559191
vt 0.811274 0.518058
vt 0.886613 0.475122
vt 0.898977 0.537282
vt 0.831469 0.581447
vt 0.763961 0.625613
vt 0.898977 0.600659
vt 0.844175 0.649945
vt 0.886613 0.662819
vt 0.862359 0.721372
vt 0.827149 0.774069
vt 0.795555 0.699841
vt 0.782334 0.818883
vt 0.743546 0.741327
vt 0.708699 0.668573
vt 0.678608 0.599721
vt 0.209164 0.787715
vt 0.014624 0.787702
vt 0.014676 0.018468
vt 0.209217 0.018482
vt 0.993118 0.200519
vt 0.223884 0.200519
vt 0.223884 0.005978
vt 0.993118 0.005978
vn 0.000000 1.000000 -0.000000
vn 0.000000 1.000000 -0.000000
vn 0.000000 1.000000 0.000000
vn 0.000000 1.000000 -0.000000
vn 0.000000 1.000000 0.000000
vn 0.000000 1.000000 -0.000000
vn 0.000000 1.000000 0.000000
vn 0.000000 1.000000 -0.000000
vn 0.000000 1.000000 -0.000000
vn 0.000000 1.000000 0.000000
vn 0.000000 1.000000 -0.000000
vn 0.000000 1.000000 0.000000
vn 0.000000 1.000000 0.000000
vn 0.000000 1.000000 0.000000
vn 0.000000 1.000000 -0.000000
vn 0.000000 1.000000 -0.000000
vn 0.000000 1.000000 -0.000000
vn 0.000000 1.000000 0.000000
vn 0.000000 1.000000 -0.000000
vn 0.000000 1.000000 -0.000000
vn 0.000000 1.000000 -0.000000
vn 0.000000 1.000000 -0.000000
vn 0.000000 1.000000 -0.000000
vn 0.000000 1.000000 -0.000000
vn 0.000000 1.000000 -0.000000
vn 0.000000 1.000000 0.000000
vn 0.000000 1.000000 0.000000
vn 0.000000 1.000000 0.000000
vn 0.000000 1.000000 0.000000
vn 0.000000 1.000000 0.000000
vn 0.000000 1.000000 -0.000000
vn 0.000000 1.000000 0.000000
vn 0.000000 1.000000 -0.000000
vn 0.000000 1.000000 0.000000
vn 0.000000 1.000000 0.000000
vn 0.000000 1.000000 -0.000000
vn 0.000000 1.000000 -0.000000
vn 0.000000 1.000000 -0.000000
vn 0.000000 1.000000 -0.000000
vn 0.000000 1.000000 0.000000
vn 0.000000 1.000000 0.000000
vn 0.000000 1.000000 -0.000000
vn 0.000000 1.000000 0.000000
vn 0.000000 1.000000 -0.000000
vn 0.000000 1.000000 -0.000000
vn 0.000000 1.000000 -0.000000
vn 0.000000 1.000000 0.000000
vn 0.000000 1.000000 0.000000
vn 0.000000 1.000000 -0.000000
vn 0.000000 1.000000 0.000000
vn 0.000000 1.000000 0.000000
vn 0.000000 1.000000 0.000000
vn 0.000000 1.000000 0.000000
vn 0.000000 1.000000 0.000000
vn 0.000000 1.000000 -0.000000
vn 0.000000 1.000000 0.000000
vn 0.000000 1.000000 -0.000000
vn 0.000000 1.000000 0.000000
vn 0.000000 1.000000 0.000000
vn 0.000000 1.000000 0.000000
vn 0.000000 1.000000 0.000000
vn 0.000000 1.000000 0.000000
vn 0.000000 1.000000 -0.000000
vn 0.000000 1.000000 0.000000
vn 0.000000 1.000000 -0.000000
vn 0.000000 1.000000 0.000000
vn 0.000000 1.000000 0.000000
vn 0.000000 1.000000 -0.000000
vn 0.000000 1.000000 -0.000000
vn 0.000000 1.000000 0.000000
vn 0.000000 1.000000 0.000000
vn 0.000000 1.000000 0.000000
vn 0.000000 1.000000 0.000000
vn 0.000000 1.000000 0.000000
vn 0.000000 1.000000 -0.000000
vn 0.000000 1.000000 -0.000000
vn 0.000000 1.000000 -0.000000
vn 0.000000 1.000000 0.000000
vn 0.000000 1.000000 0.000000
vn 0.000000 1.000000 0.000000
vn 0.000000 1.000000 -0.000000
vn 0.000000 1.000000 0.000000
vn 0.000000 1.000000 0.000000
vn 0.000000 1.000000 0.000000
vn 0.000000 1.000000 0.000000
vn 0.000000 1.000000 0.000000
vn 0.000000 1.000000 0.000000
vn 0.000000 1.000000 0.000000
vn 0.000000 1.000000 0.000000
s 1
g water
usemtl phongE1SG
f 29/1/1 13/2/2 26/3/3 30/4/4
f 26/3/3 8/5/5 27/6/6 30/4/4
f 27/6/6 10/7/7 28/8/8 30/4/4
f 28/8/8 14/9/9 29/1/1 30/4/4
f 28/8/8 10/7/7 31/10/10 34/11/11
f 31/10/10 1/12/12 32/13/13 34/11/11
f 32/13/13 11/14/14 33/15/15 34/11/11
f 33/15/15 14/9/9 28/8/8 34/11/11
f 33/15/15 11/14/14 35/16/16 38/17/17
f 35/16/16 5/18/18 36/19/19 38/17/17
f 36/19/19 12/20/20 37/21/21 38/17/17
f 37/21/21 14/9/9 33/15/15 38/17/17
f 37/21/21 12/20/20 39/22/22 41/23/23
f 39/22/22 9/24/24 40/25/25 41/23/23
f 40/25/25 13/2/2 29/1/1 41/23/23
f 29/1/1 14/9/9 37/21/21 41/23/23
f 44/26/26 12/20/20 36/19/19 45/27/27
f 36/19/19 5/18/18 42/28/28 45/27/27
f 42/28/28 15/29/29 43/30/30 45/27/27
f 43/30/30 18/31/31 44/26/26 45/27/27
f 43/30/30 15/29/29 46/32/32 49/33/33
f 46/32/32 2/34/34 47/35/35 49/33/33
f 47/35/35 16/36/36 48/37/37 49/33/33
f 48/37/37 18/31/31 43/30/30 49/33/33
f 48/37/37 16/36/36 50/38/38 53/39/39
f 50/38/38 6/40/40 51/41/41 53/39/39
f 51/41/41 17/42/42 52/43/43 53/39/39
f 52/43/43 18/31/31 48/37/37 53/39/39
f 52/43/43 17/42/42 54/44/44 55/45/45
f 54/44/44 9/24/24 39/22/22 55/45/45
f 39/22/22 12/20/20 44/26/26 55/45/45
f 44/26/26 18/31/31 52/43/43 55/45/45
f 58/46/46 17/42/42 51/41/41 59/47/47
f 51/41/41 6/40/40 56/48/48 59/47/47
f 56/48/48 19/49/49 57/50/50 59/47/47
f 57/50/50 22/51/51 58/46/46 59/47/47
f 57/50/50 19/49/49 60/52/52 63/53/53
f 60/52/52 3/54/54 61/55/55 63/53/53
f 61/55/55 20/56/56 62/57/57 63/53/53
f 62/57/57 22/51/51 57/50/50 63/53/53
f 62/57/57 20/56/56 64/58/58 67/59/59
f 64/58/58 7/60/60 65/61/61 67/59/59
f 65/61/61 21/62/62 66/63/63 67/59/59
f 66/63/63 22/51/51 62/57/57 67/59/59
f 66/63/63 21/62/62 68/64/64 69/65/65
f 68/64/64 9/24/24 54/44/44 69/65/65
f 54/44/44 17/42/42 58/46/46 69/65/65
f 58/46/46 22/51/51 66/63/63 69/65/65
f 72/66/66 21/62/62 65/61/61 73/67/67
f 65/61/61 7/60/60 70/68/68 73/67/67
f 70/68/68 23/69/69 71/70/70 73/67/67
f 71/70/70 25/71/71 72/66/66 73/67/67
f 71/70/70 23/69/69 74/72/72 77/73/73
f 74/72/72 4/74/74 75/75/75 77/73/73
f 75/75/75 24/76/76 76/77/77 77/73/73
f 76/77/77 25/71/71 71/70/70 77/73/73
f 76/77/77 24/76/76 78/78/78 80/79/79
f 78/78/78 8/5/5 26/3/3 80/79/79
f 26/3/3 13/2/2 79/80/80 80/79/79
f 79/80/80 25/71/71 76/77/77 80/79/79
f 79/80/80 13/2/2 40/25/25 81/81/81
f 40/25/25 9/24/24 68/64/64 81/81/81
f 68/64/64 21/62/62 72/66/66 81/81/81
f 72/66/66 25/71/71 79/80/80 81/81/81
s off
f 82/82/82 84/83/83 85/84/84 83/85/85
f 86/86/86 87/87/87 89/88/88 88/89/89
